<svg xmlns="http://www.w3.org/2000/svg" viewBox="0 0 800 255" width="800" height="255" data-skill-svg="true">

  <!-- Row 1 -->
  <image href="/systems/osp-houserules/assets/character-sheet/skill-circles/skill-open-stuck-doors.svg"
         x="55.00" y="0" width="130" height="130" preserveAspectRatio="xMidYMin meet"/>
  <circle id="open-stuck-doors" cx="120.00" cy="60.00" r="49" fill="none"/>
  <image href="/systems/osp-houserules/assets/character-sheet/skill-circles/skill-hear-noise.svg"
         x="195.00" y="0" width="130" height="130" preserveAspectRatio="xMidYMin meet"/>
  <circle id="hear-noise" cx="260.00" cy="60.00" r="49" fill="none"/>
  <image href="/systems/osp-houserules/assets/character-sheet/skill-circles/skill-find-secret-doors.svg"
         x="335.00" y="0" width="130" height="130" preserveAspectRatio="xMidYMin meet"/>
  <circle id="find-secret-doors" cx="400.00" cy="60.00" r="49" fill="none"/>
  <image href="/systems/osp-houserules/assets/character-sheet/skill-circles/skill-assassination.svg"
         x="475.00" y="0" width="130" height="130" preserveAspectRatio="xMidYMin meet"/>
  <circle id="assassination" cx="540.00" cy="60.00" r="49" fill="none"/>
  <image href="/systems/osp-houserules/assets/character-sheet/skill-circles/skill-climb-sheer.svg"
         x="615.00" y="0" width="130" height="130" preserveAspectRatio="xMidYMin meet"/>
  <circle id="climb-sheer" cx="680.00" cy="60.00" r="49" fill="none"/>

  <!-- Row 2 -->
  <image href="/systems/osp-houserules/assets/character-sheet/skill-circles/skill-hide-shadows.svg"
         x="72.50" y="125" width="130" height="130" preserveAspectRatio="xMidYMin meet"/>
  <circle id="hide-shadows" cx="137.50" cy="185.00" r="49" fill="none"/>
  <image href="/systems/osp-houserules/assets/character-sheet/skill-circles/skill-move-silently.svg"
         x="247.50" y="125" width="130" height="130" preserveAspectRatio="xMidYMin meet"/>
  <circle id="move-silently" cx="312.50" cy="185.00" r="49" fill="none"/>
  <image href="/systems/osp-houserules/assets/character-sheet/skill-circles/skill-detect-construction.svg"
         x="422.50" y="125" width="130" height="130" preserveAspectRatio="xMidYMin meet"/>
  <circle id="detect-construction" cx="487.50" cy="185.00" r="49" fill="none"/>
  <image href="/systems/osp-houserules/assets/character-sheet/skill-circles/skill-detect-room-traps.svg"
         x="597.50" y="125" width="130" height="130" preserveAspectRatio="xMidYMin meet"/>
  <circle id="detect-room-traps" cx="662.50" cy="185.00" r="49" fill="none"/>
</svg>
